<mxfile host="app.diagrams.net" modified="2021-03-12T18:16:38.890Z" agent="5.0 (Windows NT 10.0; Win64; x64) AppleWebKit/537.36 (KHTML, like Gecko) Chrome/89.0.4389.82 Safari/537.36" etag="eRcZYOf-nD4B2XQfdm2C" version="14.4.3" type="github">
  <diagram name="Page-1" id="42789a77-a242-8287-6e28-9cd8cfd52e62">
    <mxGraphModel dx="868" dy="482" grid="1" gridSize="10" guides="1" tooltips="1" connect="1" arrows="1" fold="1" page="1" pageScale="1" pageWidth="827" pageHeight="583" background="#ffffff" math="0" shadow="0">
      <root>
        <mxCell id="0" />
        <mxCell id="1" parent="0" />
        <mxCell id="6o0ileKFWepasCmRPc_t-5" style="rounded=0;orthogonalLoop=1;jettySize=auto;html=1;" edge="1" parent="1" source="6o0ileKFWepasCmRPc_t-1" target="6o0ileKFWepasCmRPc_t-2">
          <mxGeometry relative="1" as="geometry" />
        </mxCell>
        <mxCell id="6o0ileKFWepasCmRPc_t-8" style="edgeStyle=none;rounded=0;orthogonalLoop=1;jettySize=auto;html=1;" edge="1" parent="1" source="6o0ileKFWepasCmRPc_t-1" target="6o0ileKFWepasCmRPc_t-4">
          <mxGeometry relative="1" as="geometry" />
        </mxCell>
        <mxCell id="6o0ileKFWepasCmRPc_t-13" style="edgeStyle=none;rounded=0;orthogonalLoop=1;jettySize=auto;html=1;" edge="1" parent="1" source="6o0ileKFWepasCmRPc_t-1" target="6o0ileKFWepasCmRPc_t-3">
          <mxGeometry relative="1" as="geometry" />
        </mxCell>
        <mxCell id="6o0ileKFWepasCmRPc_t-17" style="edgeStyle=none;rounded=0;orthogonalLoop=1;jettySize=auto;html=1;exitX=0.5;exitY=1;exitDx=0;exitDy=0;entryX=1;entryY=0;entryDx=0;entryDy=52.5;entryPerimeter=0;" edge="1" parent="1" source="6o0ileKFWepasCmRPc_t-1" target="6o0ileKFWepasCmRPc_t-14">
          <mxGeometry relative="1" as="geometry" />
        </mxCell>
        <mxCell id="6o0ileKFWepasCmRPc_t-1" value="Websocket / Backend" style="ellipse;whiteSpace=wrap;html=1;aspect=fixed;" vertex="1" parent="1">
          <mxGeometry x="190" y="220" width="80" height="80" as="geometry" />
        </mxCell>
        <mxCell id="6o0ileKFWepasCmRPc_t-6" style="rounded=0;orthogonalLoop=1;jettySize=auto;html=1;verticalAlign=middle;" edge="1" parent="1" source="6o0ileKFWepasCmRPc_t-2" target="6o0ileKFWepasCmRPc_t-1">
          <mxGeometry relative="1" as="geometry" />
        </mxCell>
        <mxCell id="6o0ileKFWepasCmRPc_t-12" style="edgeStyle=none;rounded=0;orthogonalLoop=1;jettySize=auto;html=1;" edge="1" parent="1" source="6o0ileKFWepasCmRPc_t-2" target="6o0ileKFWepasCmRPc_t-3">
          <mxGeometry relative="1" as="geometry" />
        </mxCell>
        <mxCell id="6o0ileKFWepasCmRPc_t-2" value="User" style="rounded=1;whiteSpace=wrap;html=1;" vertex="1" parent="1">
          <mxGeometry x="340" y="100" width="160" height="60" as="geometry" />
        </mxCell>
        <mxCell id="6o0ileKFWepasCmRPc_t-10" style="edgeStyle=none;rounded=0;orthogonalLoop=1;jettySize=auto;html=1;" edge="1" parent="1" source="6o0ileKFWepasCmRPc_t-3" target="6o0ileKFWepasCmRPc_t-4">
          <mxGeometry relative="1" as="geometry" />
        </mxCell>
        <mxCell id="6o0ileKFWepasCmRPc_t-11" style="edgeStyle=none;rounded=0;orthogonalLoop=1;jettySize=auto;html=1;" edge="1" parent="1" source="6o0ileKFWepasCmRPc_t-3" target="6o0ileKFWepasCmRPc_t-2">
          <mxGeometry relative="1" as="geometry" />
        </mxCell>
        <mxCell id="6o0ileKFWepasCmRPc_t-3" value="SFU" style="ellipse;whiteSpace=wrap;html=1;aspect=fixed;" vertex="1" parent="1">
          <mxGeometry x="530" y="230" width="80" height="80" as="geometry" />
        </mxCell>
        <mxCell id="6o0ileKFWepasCmRPc_t-7" style="edgeStyle=none;rounded=0;orthogonalLoop=1;jettySize=auto;html=1;entryX=1;entryY=0.5;entryDx=0;entryDy=0;" edge="1" parent="1" source="6o0ileKFWepasCmRPc_t-4" target="6o0ileKFWepasCmRPc_t-1">
          <mxGeometry relative="1" as="geometry" />
        </mxCell>
        <mxCell id="6o0ileKFWepasCmRPc_t-9" style="edgeStyle=none;rounded=0;orthogonalLoop=1;jettySize=auto;html=1;" edge="1" parent="1" source="6o0ileKFWepasCmRPc_t-4" target="6o0ileKFWepasCmRPc_t-3">
          <mxGeometry relative="1" as="geometry" />
        </mxCell>
        <mxCell id="6o0ileKFWepasCmRPc_t-4" value="User" style="rounded=1;whiteSpace=wrap;html=1;" vertex="1" parent="1">
          <mxGeometry x="570" y="100" width="120" height="60" as="geometry" />
        </mxCell>
        <mxCell id="6o0ileKFWepasCmRPc_t-15" style="edgeStyle=none;rounded=0;orthogonalLoop=1;jettySize=auto;html=1;" edge="1" parent="1" source="6o0ileKFWepasCmRPc_t-14" target="6o0ileKFWepasCmRPc_t-1">
          <mxGeometry relative="1" as="geometry" />
        </mxCell>
        <mxCell id="6o0ileKFWepasCmRPc_t-14" value="User DB&lt;br&gt;" style="shape=cylinder3;whiteSpace=wrap;html=1;boundedLbl=1;backgroundOutline=1;size=15;" vertex="1" parent="1">
          <mxGeometry x="110" y="350" width="60" height="80" as="geometry" />
        </mxCell>
      </root>
    </mxGraphModel>
  </diagram>
</mxfile>
